<svg xmlns="http://www.w3.org/2000/svg" viewBox="0 0 289.19 106.85"><defs><style>.cls-1{fill:#d63c61;}.cls-2{fill:#111d68;}.cls-3{fill:#fff;}</style></defs><g id="レイヤー_2" data-name="レイヤー 2"><g id="レイヤー_2-2" data-name="レイヤー 2"><path class="cls-1" d="M249.31,105.38c-2.47,2.1-8.54,1.33-8.54,1.33s.21-6.12,2.67-8.22c1.75-1.48,7-3,10-3.75a1,1,0,0,1,1.05.28h0s0,0,0,0a1.06,1.06,0,0,1,.11,1.07C253.38,98.92,251.05,103.89,249.31,105.38Z"/><path class="cls-1" d="M258.4,105.38c2.47,2.1,8.54,1.33,8.54,1.33s-.21-6.12-2.67-8.22c-1.75-1.48-7-3-10-3.75a1,1,0,0,0-1.05.28h0s0,0,0,0a1,1,0,0,0-.11,1.07C254.33,98.92,256.66,103.89,258.4,105.38Z"/><path class="cls-2" d="M289.19,66.31c0,20.23-15.4,31.21-35.85,31.21s-35.86-11-35.86-31.21,15.4-34.49,35.86-34.49S289.19,46.07,289.19,66.31Zm-65.36,1.31c0,17.85,12.9,25,29.51,25s30.32-8.47,30.32-26.32-13.77-28.59-30.32-28.59S223.83,49.77,223.83,67.62Z"/><path class="cls-2" d="M280.2,16.89,260.87,2.21a12.23,12.23,0,0,0-14,0L227.51,16.89c-3.87,2.94-3.87,7.71,0,10.66l19.33,14.67a12.23,12.23,0,0,0,14,0L280.2,27.55C284.07,24.6,284.07,19.83,280.2,16.89Z"/><path class="cls-2" d="M277.6,37.19h0a4,4,0,0,0-3.44-5.95H233.55a4,4,0,0,0-3.44,5.95h0A27.43,27.43,0,0,0,277.6,37.19Z"/><rect class="cls-3" x="229.3" y="22.94" width="48.83" height="10.08"/><path class="cls-2" d="M278.13,26.18V22.71c-15.47-6.25-33.33-5.48-48.83,0v3.47C245.1,22.18,262.35,21.63,278.13,26.18Z"/><path class="cls-2" d="M229.3,31.69v3.56h48.83V31.69A235.09,235.09,0,0,0,229.3,31.69Z"/><path class="cls-2" d="M278.13,29.85V28c-15.94-3.64-32.88-3.21-48.83,0v1.82A155.59,155.59,0,0,1,278.13,29.85Z"/><path class="cls-3" d="M262.55,25.67c0,4.81-3.88,8-8.7,8s-8.69-3.2-8.69-8,3.88-9.37,8.69-9.37S262.55,20.87,262.55,25.67Z"/><path class="cls-2" d="M253.79,37.76c-1.43,0-29.68-.26-28.84,21.15a11.2,11.2,0,0,1,13.32-6.62s11.6,2.6,9,15.79a1,1,0,0,1-.24.48c-1.09,1.13-6.21,7.17,2.38,13.27a1.59,1.59,0,0,0,.29.15,11.28,11.28,0,0,0,8.09,0,1.59,1.59,0,0,0,.29-.15c8.59-6.1,3.47-12.14,2.39-13.27a.89.89,0,0,1-.25-.48c-2.56-13.19,9-15.79,9-15.79a11.22,11.22,0,0,1,13.33,6.62C283.47,37.5,255.21,37.74,253.79,37.76Z"/><rect class="cls-3" x="249.82" y="69.55" width="7.98" height="7.98" rx="1.4" transform="translate(126.34 -157.93) rotate(45)"/><circle class="cls-2" cx="237.49" cy="65.71" r="2.69"/><circle class="cls-2" cx="270.38" cy="65.71" r="2.69"/><path class="cls-2" d="M52.27,50.65l-1.71,1.14a1.54,1.54,0,0,1-2.08-.34,23.05,23.05,0,0,0-18.54-8.76c-13.86,0-24.64,10.06-24.64,25s10.78,25,24.64,25A22.82,22.82,0,0,0,48.4,83.92a1.55,1.55,0,0,1,2.14-.31l1.66,1.22a1.56,1.56,0,0,1,.33,2.2c-5,6.54-13.25,10.52-22.59,10.52C12.86,97.55,0,85.19,0,67.66s12.86-29.9,29.94-29.9c9.4,0,17.89,4,22.73,10.68A1.56,1.56,0,0,1,52.27,50.65Z"/><path class="cls-2" d="M126.18,67.66c0,17.53-12.86,29.89-29.94,29.89S66.3,85.19,66.3,67.66s12.86-29.9,29.94-29.9S126.18,50.12,126.18,67.66Zm-54.57,0c0,14.9,10.77,25,24.63,25s24.59-10.07,24.59-25-10.77-25-24.59-25S71.61,52.75,71.61,67.66Z"/><path class="cls-2" d="M199.31,97.72h-1.88a1.61,1.61,0,0,1-1.61-1.61V52a1.61,1.61,0,0,0-3-.7L174,89.88a1.6,1.6,0,0,1-1.45.91h-3.38a1.61,1.61,0,0,1-1.44-.9L148.89,51.54a1.61,1.61,0,0,0-3,.71V96.11a1.61,1.61,0,0,1-1.6,1.61h-1.88a1.61,1.61,0,0,1-1.61-1.61V40.87a1.61,1.61,0,0,1,1.61-1.61h5.07a1.61,1.61,0,0,1,1.44.9l20.54,41.72a1.61,1.61,0,0,0,2.89,0l20.49-41.72a1.61,1.61,0,0,1,1.45-.9h5.07a1.61,1.61,0,0,1,1.61,1.61V96.11A1.61,1.61,0,0,1,199.31,97.72Z"/><path class="cls-2" d="M256.55,30.63l-2.22-1.17a1.08,1.08,0,0,0-1,0l-2.22,1.17a1.1,1.1,0,0,1-1.6-1.16l.42-2.47a1.09,1.09,0,0,0-.31-1l-1.8-1.75a1.11,1.11,0,0,1,.61-1.88l2.48-.36a1.09,1.09,0,0,0,.82-.6l1.11-2.25a1.1,1.1,0,0,1,2,0l1.11,2.24a1.12,1.12,0,0,0,.83.61l2.48.35a1.1,1.1,0,0,1,.61,1.88L258,26a1.11,1.11,0,0,0-.32,1l.43,2.46A1.11,1.11,0,0,1,256.55,30.63Z"/></g></g></svg>